<mxfile host="app.diagrams.net" modified="2023-05-26T05:38:10.143Z" agent="Mozilla/5.0 (Windows NT 10.0; Win64; x64) AppleWebKit/537.36 (KHTML, like Gecko) Chrome/113.0.0.0 Safari/537.36" version="21.1.6" etag="7YNwNwQ-4PvSlnXIGHEB" type="github">
  <diagram name="페이지-1" id="VJRAdozX3ffhBrh0vF7w">
    <mxGraphModel>
      <root>
        <mxCell id="0" />
        <mxCell id="1" parent="0" />
      </root>
    </mxGraphModel>
  </diagram>
</mxfile>
